<?xml version="1.0" encoding="UTF-8" standalone="no"?>
<svg
   xmlns:dc="http://purl.org/dc/elements/1.1/"
   xmlns:cc="http://creativecommons.org/ns#"
   xmlns:rdf="http://www.w3.org/1999/02/22-rdf-syntax-ns#"
   xmlns:svg="http://www.w3.org/2000/svg"
   xmlns="http://www.w3.org/2000/svg"
   xmlns:sodipodi="http://sodipodi.sourceforge.net/DTD/sodipodi-0.dtd"
   xmlns:inkscape="http://www.inkscape.org/namespaces/inkscape"
   version="1.1"
   id="svg2"
   xml:space="preserve"
   width="540"
   height="315"
   viewBox="0 0 540 315"
   sodipodi:docname="fliqa_brand.svg"
   inkscape:version="1.0.2 (e86c8708, 2021-01-15)"><metadata
     id="metadata8"><rdf:RDF><cc:Work
         rdf:about=""><dc:format>image/svg+xml</dc:format><dc:type
           rdf:resource="http://purl.org/dc/dcmitype/StillImage" /><dc:title></dc:title></cc:Work></rdf:RDF></metadata><defs
     id="defs6"><clipPath
       clipPathUnits="userSpaceOnUse"
       id="clipPath18"><path
         d="M 0,352.303 H 558.355 V 0 H 0 Z"
         id="path16" /></clipPath></defs><sodipodi:namedview
     pagecolor="#ffffff"
     bordercolor="#666666"
     borderopacity="1"
     objecttolerance="10"
     gridtolerance="10"
     guidetolerance="10"
     inkscape:pageopacity="0"
     inkscape:pageshadow="2"
     inkscape:window-width="1440"
     inkscape:window-height="855"
     id="namedview4"
     inkscape:document-rotation="0"
     showgrid="false"
     inkscape:zoom="1.4242002"
     inkscape:cx="372.23666"
     inkscape:cy="187.12257"
     inkscape:window-x="0"
     inkscape:window-y="23"
     inkscape:window-maximized="0"
     inkscape:current-layer="g10" /><g
     id="g10"
     inkscape:groupmode="layer"
     inkscape:label="Fliqa-Zig-1_0"
     transform="matrix(1.3333333,0,0,-1.3333333,0,469.73733)"><g
       id="g12"
       transform="translate(-77.938483,80.57154)"><g
         id="g14"
         clip-path="url(#clipPath18)"><g
           id="g20"
           transform="translate(344.4482,101.9829)"><path
             d="m 0,0 v 143.806 c -3.351,2.814 -7.772,4.154 -13.268,4.154 -4.824,0 -9.515,-1.475 -11.794,-2.949 l -1.339,-1.205 V 0 c 3.349,-2.815 7.638,-4.155 13.133,-4.021 4.825,0 9.65,1.474 11.793,2.948 z m 8.846,167.393 c 6.701,-2.279 11.392,-4.691 13.938,-7.103 l 3.753,-3.217 V -13.134 C 20.506,-19.568 11.124,-23.856 -1.475,-26 V -62.588 H -25.062 V -26 c -5.628,0.937 -10.722,2.411 -15.413,4.689 -4.69,2.146 -8.041,4.021 -9.783,5.629 l -2.814,2.548 v 170.207 c 0.938,1.072 2.278,2.412 4.289,3.887 2.01,1.475 6.431,3.483 13.268,6.031 13.402,4.958 31.093,4.825 44.361,0.402"
             style="fill:white;fill-opacity:1;fill-rule:nonzero;stroke:none"
             id="path22" /></g><g
           id="g24"
           transform="translate(79.6094,270.0786)"><path
             d="M 0,0 H 64.867 V -22.784 H 26.671 V -82.96 h 32.165 v -22.783 H 26.671 v -86.445 H 0 Z"
             style="fill:white;fill-opacity:1;fill-rule:nonzero;stroke:none"
             id="path26" /></g><g
           id="g28"
           transform="translate(190.1826,270.0786)"><path
             d="m 0,0 v -169.405 h 38.196 v -22.783 H -26.671 V 0 Z"
             style="fill:white;fill-opacity:1;fill-rule:nonzero;stroke:none"
             id="path30" /></g><g
           id="g32"
           transform="translate(419.2393,134.7153)"><path
             d="M 0,0 H 24.929 L 15.412,64.465 13.938,87.517 H 10.99 L 9.65,64.465 Z M -1.34,135.363 H 26.402 L 59.506,-56.825 H 33.238 l -4.96,34.042 H -3.35 l -4.826,-34.042 h -26.401 z"
             style="fill:white;fill-opacity:1;fill-rule:nonzero;stroke:none"
             id="path34" /></g><path
           d="m 242.054,270.079 h 26.67 V 77.891 h -26.67 z"
           style="fill:white;fill-opacity:1;fill-rule:nonzero;stroke:none"
           id="path36" /></g></g></g></svg>
